<svg version="1.2" xmlns="http://www.w3.org/2000/svg" viewBox="0 0 511 110" width="511" height="110">
	<style>
		.s0 { fill: #000000 } 
	</style>
	<path id="Sanna Carlsson" fill-rule="evenodd" class="s0" d="m13.34 95.52c-0.89-8.82 3.24-15.96 6.97-16.33 0.5-0.06 1.01 0.04 1.62 0.34l0.27 0.48c-0.52 1.35-0.72 2.96-0.69 4.63l-0.4 0.33c-0.16-0.06-0.45-0.1-0.74-0.07-1.64 0.16-3.92 1.98-4.82 3.09-0.29 0.75-0.35 1.55-0.27 2.34 0.49 4.87 9.27 7.32 14.14 6.83 6.16-0.62 8.42-4.76 7.81-10.92-0.78-7.74-22.1-13.92-22.94-22.3-0.72-7.16 6.61-14.12 13.18-17.17 4.08-0.41 7.85-0.43 11.8 0.05l0.14 1.43c-2.47 2.78-3.26 7.13-3.09 11.02l-1.79 0.18c-0.23-2.29-0.51-4.36-1.02-6.63-2.1-0.73-5.09-0.93-7.38-0.7-3.73 0.37-7.9 2.82-7.53 6.47 0.78 7.74 21.91 12.85 22.83 21.95 0.96 9.6-3.91 18.05-12.56 22.61-5.07 0-10.51-0.9-14.84-3.58-0.24-0.99-0.57-2.84-0.69-4.05zm49.56-41.82c4.23-0.42 9.93-1.28 14.11-2.21l0.47 1.83c-1.03 0.54-3.19 1.41-4.31 1.74-0.07 2.18 0.15 9.39 0.69 14.76 0.97 9.75 2.09 15.79 2.59 17.91 1.6 0.05 3.8 0.34 5.41 0.54l-0.11 1.82c-2.18-0.14-6.79 0.1-8.94 0.32-1.79 0.18-6.35 0.85-8.11 1.39l-0.47-1.83c1.11-0.48 4.27-1.44 5.4-1.7 0.01-2.03-0.13-6.36-0.51-11.6-2.03-0.01-4.41 0.08-6.42 0.28-2.07 0.21-4.22 0.5-6.19 0.99-0.34 2.42-0.83 6.16-0.61 8.31 0.22 2.22 0.88 3.74 3 4.69l-0.16 1.24c-1.03-0.11-4.2 0.06-5.49 0.19-2.36 0.24-6.35 0.86-7.96 1.38l-0.48-1.83c0.97-0.46 3.42-1.29 4.62-1.62l6.03-33.61c-1.46-0.07-4.09-0.31-5.63-0.59l0.03-1.88c4.34 0.07 8.81-0.09 13.04-0.52zm5.88 19.6c-0.89-8.88-1.81-15.16-2.3-17.06-1.22 0.05-2.3 0.08-3.45 0.2-1.22 0.12-2.57 0.33-3.78 0.52l-1.95 13.73c-0.4 2.5-0.56 3.82-0.56 3.82 1.89 0.1 3.84 0.05 5.71-0.14 2-0.2 4.36-0.51 6.33-1.07zm35.93 12.6l-0.04 1.81c-2.69-0.09-5.85 0.09-8.5 0.35-2.3 0.23-5.86 0.81-8.11 1.4l-0.48-1.84c1.32-0.57 3-1.17 4.19-1.51 0.03-1.88-0.05-7.01-0.82-14.67l-0.34-3.37c-0.54-5.37-1.7-12.64-2.2-14.69-1.74-0.04-2.99-0.27-4.77-0.68l0.03-1.88c2.26 0.21 6.88 0.1 9.1-0.12 1.58-0.16 4.3-0.5 5.9-1.1l0.27 1.21c-0.77 0.29-1.85 1.05-1.77 1.84 0.18 1.79 4.18 5.66 18.87 25.82l0.2-0.17-0.87-8.74c-1.24-12.25-2.99-18.87-6.46-19.61l0.02-1.23c1.53 0.13 3.76-0.02 5.55-0.2 2.87-0.29 5.55-0.92 7.66-1.57l0.4 1.85c-1.6 0.66-3.13 1.25-4.83 1.64-0.04 1.74-0.02 6.95 0.77 14.83l0.34 3.37c0.54 5.37 1.64 12.78 2.2 14.68 1.67 0.12 3.43 0.31 4.91 0.67l-0.03 1.88c-2.34-0.27-4.44-0.35-7.31-0.06-1.29 0.13-3.07 0.38-4.34 0.72-0.29-2.86-6.71-9.89-20.66-29.18l-0.27 0.17 0.96 9.6c0.62 6.16 1.78 14.8 4.01 18.34 2.1 0.01 4.29 0.15 6.42 0.44zm44.63-4.48l-0.04 1.81c-2.68-0.09-5.85 0.08-8.5 0.35-2.29 0.23-5.85 0.8-8.11 1.39l-0.48-1.83c1.32-0.57 3-1.17 4.2-1.51 0.02-1.88-0.06-7.01-0.83-14.68l-0.34-3.37c-0.54-5.37-1.7-12.63-2.2-14.68-1.74-0.04-2.99-0.28-4.77-0.68l0.03-1.88c2.26 0.2 6.88 0.1 9.11-0.12 1.57-0.16 4.29-0.51 5.89-1.1l0.27 1.2c-0.77 0.3-1.85 1.06-1.77 1.84 0.18 1.79 4.19 5.66 18.87 25.82l0.2-0.16-0.87-8.74c-1.23-12.25-2.99-18.88-6.46-19.62l0.02-1.23c1.53 0.14 3.76-0.01 5.55-0.19 2.87-0.29 5.55-0.92 7.66-1.57l0.4 1.84c-1.59 0.67-3.13 1.26-4.83 1.64-0.04 1.75-0.02 6.95 0.77 14.83l0.34 3.37c0.54 5.37 1.65 12.79 2.2 14.69 1.67 0.12 3.43 0.3 4.91 0.66l-0.02 1.88c-2.35-0.27-4.45-0.34-7.32-0.06-1.29 0.13-3.07 0.39-4.34 0.73-0.29-2.87-6.71-9.89-20.66-29.18l-0.27 0.17 0.96 9.6c0.62 6.16 1.78 14.8 4.01 18.34 2.1 0 4.29 0.14 6.42 0.44zm41.15-40.54c4.23-0.42 9.93-1.28 14.11-2.21l0.47 1.83c-1.03 0.54-3.19 1.41-4.31 1.74-0.07 2.18 0.15 9.39 0.69 14.76 0.97 9.75 2.09 15.79 2.59 17.91 1.6 0.05 3.8 0.34 5.41 0.54l-0.11 1.82c-2.18-0.14-6.79 0.1-8.94 0.32-1.79 0.18-6.35 0.85-8.11 1.39l-0.47-1.83c1.11-0.48 4.27-1.44 5.4-1.7 0.01-2.03-0.13-6.36-0.51-11.6-2.03-0.01-4.41 0.08-6.42 0.28-2.07 0.21-4.22 0.5-6.19 0.99-0.34 2.42-0.83 6.16-0.62 8.31 0.23 2.22 0.89 3.74 3.01 4.69l-0.17 1.24c-1.02-0.11-4.19 0.06-5.48 0.19-2.36 0.24-6.35 0.86-7.96 1.38l-0.48-1.83c0.97-0.46 3.42-1.29 4.62-1.62l6.03-33.61c-1.46-0.07-4.09-0.31-5.63-0.59l0.02-1.88c4.35 0.07 8.82-0.09 13.05-0.52zm5.88 19.6c-0.9-8.88-1.82-15.16-2.3-17.06-1.22 0.05-2.3 0.08-3.45 0.2-1.22 0.12-2.57 0.33-3.78 0.52l-1.95 13.73c-0.4 2.5-0.56 3.82-0.56 3.82 1.89 0.1 3.84 0.05 5.7-0.14 2.01-0.2 4.37-0.51 6.34-1.07zm61.45 7.36l1.1 0.9c-2.66 5.19-7.18 9.91-13.06 12.6-12.75 1.28-18.29-8.44-19.57-21.19-1.47-14.68 2.4-29.47 16.1-34.97 4.44-0.45 10.44-0.47 14.89-0.13l0.09 1.59c-1.15 0.11-2.34 0.45-3.37 0.99-1.04 3.36-1.36 6.72-1.35 10.34l-1.79 0.18c-0.66-2.18-1.07-4.17-1.3-6.39-2.49-1.05-6.01-1.49-8.44-1.25-2.94 0.3-5.38 1.27-7.32 3.49-2.17 5.79-2.36 13.26-1.75 19.35 1.11 11.03 3.84 23.13 14.8 22.03 4.3-0.43 8.58-3.9 10.97-7.54zm19.57-35.69c4.23-0.42 9.93-1.29 14.1-2.21l0.48 1.83c-1.03 0.54-3.19 1.41-4.31 1.74-0.07 2.18 0.14 9.39 0.68 14.76 0.98 9.75 2.1 15.79 2.6 17.91 1.6 0.05 3.8 0.34 5.41 0.54l-0.11 1.82c-2.18-0.15-6.79 0.1-8.94 0.32-1.79 0.18-6.35 0.85-8.11 1.39l-0.47-1.83c1.11-0.48 4.27-1.45 5.4-1.7 0.01-2.03-0.13-6.36-0.52-11.6-2.02-0.02-4.4 0.08-6.41 0.28-2.08 0.21-4.22 0.5-6.19 0.98-0.34 2.43-0.83 6.17-0.62 8.31 0.23 2.23 0.89 3.75 3.01 4.7l-0.17 1.24c-1.02-0.11-4.19 0.06-5.48 0.19-2.36 0.24-6.35 0.86-7.96 1.38l-0.48-1.83c0.97-0.46 3.42-1.29 4.62-1.62l6.03-33.61c-1.46-0.07-4.09-0.31-5.63-0.59l0.02-1.88c4.35 0.07 8.82-0.09 13.05-0.52zm5.88 19.6c-0.9-8.88-1.82-15.16-2.3-17.06-1.22 0.05-2.3 0.08-3.45 0.2-1.22 0.12-2.57 0.33-3.78 0.52l-1.95 13.73c-0.4 2.5-0.56 3.82-0.56 3.82 1.89 0.1 3.84 0.05 5.7-0.14 2.01-0.2 4.37-0.51 6.34-1.07zm35.64 12.63l-0.04 1.81c-2.68-0.09-5.85 0.08-8.5 0.35-2.29 0.23-5.85 0.8-8.11 1.39l-0.47-1.83c1.31-0.57 3.2-1.19 4.4-1.53 0.07-2.18-0.22-9.38-0.92-16.33-0.77-7.74-1.79-14.22-2.27-16.13-1.78-0.4-3.1-0.63-4.75-0.46l-0.14-1.44c5.3-0.53 12.91-1.8 16.42-2.15 7.88-0.79 13.07 0.42 13.78 7.51 0.47 4.66-2.31 8.7-6.65 10.8l9.67 15.6c1.31 0.09 3.36 0.32 4.68 0.54l-0.09 1.97c-2.18-0.14-4.99-0.01-7.86 0.28-1.86 0.19-3.56 0.5-4.83 0.85l-0.4-1.12c0.45-0.55 0.79-1.45 0.62-3.17-0.23-2.3-1.72-6.34-6.43-13.54-1.17-0.1-2.39-0.05-3.54 0.07l-0.06-2.1 0.71-0.07c5.38-0.54 8.22-3.21 7.68-8.58-0.48-4.8-2.94-6.95-7.96-6.44-1.5 0.15-2.91 0.51-4.29 1.23-0.02 4.12 0.12 6.21 1.11 16.02 0.69 6.88 1.77 14.08 2.25 15.98 1.89 0.03 4 0.18 5.99 0.49zm46.91-2.62c-3.42-0.23-7.24-0.07-10.82 0.29-4.3 0.44-10.95 1.25-15.19 2.25l-0.39-1.77c1.24-0.63 3.05-1.32 4.45-1.75 0.12-1.74 0.05-6.73-0.75-14.68l-0.34-3.37c-0.54-5.37-1.67-12.28-2.18-14.54-1.31-0.09-3.22-0.33-4.62-0.62l0.1-1.89c2.32 0.12 5.93-0.02 8.22-0.25 2.65-0.27 6.22-0.77 8.83-1.47l0.39 1.77c-1.95 0.71-4.28 1.37-6.26 1.79-0.09 1.96 0.32 8.94 0.91 14.81 0.74 7.38 1.82 15.23 2.31 17.21 1.31 0.09 3.04-0.01 4.25-0.14 2.01-0.2 4.48-0.81 6.18-1.85 0.49-1.64 0.6-4.18 0.43-5.83l1.79-0.18c0.46 3.07 1.2 6.1 2.91 8.75zm4.91-1.5c-0.89 0.52-1.48 1.09-2.2 1.88l-1.38-0.8c2.61-3.52 3.5-6.94 3.36-11.26l1.79-0.18c0.16 1.64 0.41 3.36 0.71 4.92l-0.01-0.07c2.16 0.65 4.44 0.93 6.66 0.7 4.15-0.41 6.89-2.64 6.51-6.51-0.51-5.02-17.15-7.18-17.81-13.77-0.54-5.37 5.96-11.96 10.95-14.13 3.3-0.33 6.48-0.36 9.71 0.11l0.13 1.29c-2 2.45-2.64 5.48-2.54 8.58l-1.79 0.18c-0.18-1.79-0.47-3.21-0.86-4.98-1.65-0.56-3.84-0.77-5.71-0.58-3.29 0.33-6.29 2.22-5.96 5.51 0.51 5.02 17.07 7.05 17.72 13.57 0.61 6.01-5.27 13.04-10.72 15.76-3.15 0.32-5.61 0.28-8.56-0.22zm30.16-3.03c-0.89 0.52-1.48 1.09-2.2 1.88l-1.38-0.8c2.61-3.52 3.5-6.94 3.36-11.26l1.79-0.18c0.16 1.64 0.41 3.36 0.71 4.92l-0.01-0.07c2.17 0.65 4.44 0.93 6.66 0.7 4.15-0.42 6.9-2.64 6.51-6.51-0.51-5.02-17.15-7.18-17.81-13.77-0.54-5.37 5.96-11.96 10.95-14.13 3.3-0.33 6.48-0.36 9.71 0.11l0.13 1.29c-2 2.45-2.64 5.48-2.54 8.58l-1.79 0.18c-0.18-1.79-0.47-3.21-0.86-4.98-1.65-0.56-3.84-0.77-5.71-0.58-3.29 0.33-6.29 2.22-5.95 5.51 0.5 5.02 17.06 7.05 17.71 13.57 0.61 6.01-5.27 13.04-10.72 15.76-3.15 0.32-5.61 0.28-8.56-0.22zm40.75-42.45c9.96-1 15.72 4.5 16.72 14.46 1.03 10.31-3.78 19.99-13.52 24.66-9.45 0.95-16.49-5-17.44-14.46-1.04-10.32 4.4-21.07 14.24-24.66zm-6.91 6.92c-1.84 4.02-2.08 8.82-1.67 12.9 0.75 7.45 5.11 15.55 12.56 14.8 2.01-0.2 4.1-0.99 5.48-2.43 1.71-3.86 2.01-8.74 1.62-12.68-0.85-8.38-4.2-15.79-12.58-14.95-1.86 0.19-4.02 1.06-5.41 2.36zm49.3 26.09l-0.04 1.81c-2.68-0.09-5.85 0.08-8.5 0.35-2.29 0.23-5.85 0.8-8.11 1.39l-0.47-1.83c1.32-0.57 2.99-1.17 4.19-1.51 0.03-1.88-0.06-7.01-0.83-14.68l-0.33-3.36c-0.54-5.38-1.71-12.64-2.2-14.69-1.74-0.04-3-0.28-4.77-0.68l0.02-1.88c2.27 0.2 6.89 0.1 9.11-0.12 1.57-0.16 4.29-0.51 5.89-1.1l0.27 1.2c-0.77 0.3-1.85 1.06-1.77 1.84 0.18 1.8 4.19 5.66 18.88 25.82l0.2-0.16-0.88-8.74c-1.23-12.25-2.98-18.88-6.46-19.61l0.02-1.24c1.54 0.14 3.76-0.01 5.56-0.19 2.86-0.29 5.55-0.92 7.65-1.57l0.41 1.84c-1.6 0.67-3.13 1.26-4.83 1.65-0.04 1.74-0.03 6.94 0.76 14.82l0.34 3.37c0.54 5.37 1.65 12.79 2.2 14.69 1.68 0.12 3.43 0.3 4.92 0.66l-0.03 1.89c-2.34-0.28-4.45-0.35-7.32-0.07-1.29 0.13-3.07 0.39-4.34 0.73-0.29-2.87-6.71-9.89-20.66-29.18l-0.27 0.17 0.96 9.6c0.62 6.16 1.78 14.8 4.02 18.34 2.1 0 4.28 0.14 6.41 0.44z"/>
</svg>